<?xml version='1.0' encoding='UTF-8'?>
<svg xmlns:svg="http://www.w3.org/2000/svg" width="250mm" height="250mm" version="1.1" xmlns="http://www.w3.org/2000/svg"><svg:rect x="0mm" y="0mm" width="10mm" height="10mm" /><svg:rect x="10mm" y="0mm" width="10mm" height="10mm" /><svg:rect x="20mm" y="0mm" width="10mm" height="10mm" /><svg:rect x="30mm" y="0mm" width="10mm" height="10mm" /><svg:rect x="40mm" y="0mm" width="10mm" height="10mm" /><svg:rect x="50mm" y="0mm" width="10mm" height="10mm" /><svg:rect x="60mm" y="0mm" width="10mm" height="10mm" /><svg:rect x="81mm" y="1mm" width="8mm" height="8mm" /><svg:rect x="101mm" y="1mm" width="8mm" height="8mm" /><svg:rect x="111mm" y="1mm" width="8mm" height="8mm" /><svg:rect x="121mm" y="1mm" width="8mm" height="8mm" /><svg:rect x="141mm" y="1mm" width="8mm" height="8mm" /><svg:rect x="161mm" y="1mm" width="8mm" height="8mm" /><svg:rect x="180mm" y="0mm" width="10mm" height="10mm" /><svg:rect x="190mm" y="0mm" width="10mm" height="10mm" /><svg:rect x="200mm" y="0mm" width="10mm" height="10mm" /><svg:rect x="210mm" y="0mm" width="10mm" height="10mm" /><svg:rect x="220mm" y="0mm" width="10mm" height="10mm" /><svg:rect x="230mm" y="0mm" width="10mm" height="10mm" /><svg:rect x="240mm" y="0mm" width="10mm" height="10mm" /><svg:rect x="0mm" y="10mm" width="10mm" height="8mm" /><svg:rect x="60mm" y="10mm" width="10mm" height="8mm" /><svg:rect x="91mm" y="11mm" width="8mm" height="8mm" /><svg:rect x="101mm" y="11mm" width="8mm" height="8mm" /><svg:rect x="180mm" y="10mm" width="10mm" height="8mm" /><svg:rect x="240mm" y="10mm" width="10mm" height="8mm" /><svg:rect x="0mm" y="20mm" width="10mm" height="10mm" /><svg:rect x="20mm" y="20mm" width="10mm" height="10mm" /><svg:rect x="30mm" y="20mm" width="10mm" height="10mm" /><svg:rect x="40mm" y="20mm" width="10mm" height="10mm" /><svg:rect x="60mm" y="20mm" width="10mm" height="10mm" /><svg:rect x="101mm" y="21mm" width="8mm" height="8mm" /><svg:rect x="111mm" y="21mm" width="8mm" height="8mm" /><svg:rect x="131mm" y="21mm" width="8mm" height="8mm" /><svg:rect x="161mm" y="21mm" width="8mm" height="8mm" /><svg:rect x="180mm" y="20mm" width="10mm" height="10mm" /><svg:rect x="200mm" y="20mm" width="10mm" height="10mm" /><svg:rect x="210mm" y="20mm" width="10mm" height="10mm" /><svg:rect x="220mm" y="20mm" width="10mm" height="10mm" /><svg:rect x="240mm" y="20mm" width="10mm" height="10mm" /><svg:rect x="0mm" y="30mm" width="10mm" height="10mm" /><svg:rect x="20mm" y="30mm" width="10mm" height="10mm" /><svg:rect x="30mm" y="30mm" width="10mm" height="10mm" /><svg:rect x="40mm" y="30mm" width="10mm" height="10mm" /><svg:rect x="60mm" y="30mm" width="10mm" height="10mm" /><svg:rect x="111mm" y="31mm" width="8mm" height="8mm" /><svg:rect x="121mm" y="31mm" width="8mm" height="8mm" /><svg:rect x="131mm" y="31mm" width="8mm" height="8mm" /><svg:rect x="180mm" y="30mm" width="10mm" height="10mm" /><svg:rect x="200mm" y="30mm" width="10mm" height="10mm" /><svg:rect x="210mm" y="30mm" width="10mm" height="10mm" /><svg:rect x="220mm" y="30mm" width="10mm" height="10mm" /><svg:rect x="240mm" y="30mm" width="10mm" height="10mm" /><svg:rect x="0mm" y="40mm" width="10mm" height="10mm" /><svg:rect x="20mm" y="40mm" width="10mm" height="10mm" /><svg:rect x="30mm" y="40mm" width="10mm" height="10mm" /><svg:rect x="40mm" y="40mm" width="10mm" height="10mm" /><svg:rect x="60mm" y="40mm" width="10mm" height="10mm" /><svg:rect x="91mm" y="41mm" width="8mm" height="8mm" /><svg:rect x="121mm" y="41mm" width="8mm" height="8mm" /><svg:rect x="161mm" y="41mm" width="8mm" height="8mm" /><svg:rect x="180mm" y="40mm" width="10mm" height="10mm" /><svg:rect x="200mm" y="40mm" width="10mm" height="10mm" /><svg:rect x="210mm" y="40mm" width="10mm" height="10mm" /><svg:rect x="220mm" y="40mm" width="10mm" height="10mm" /><svg:rect x="240mm" y="40mm" width="10mm" height="10mm" /><svg:rect x="0mm" y="50mm" width="10mm" height="8mm" /><svg:rect x="60mm" y="50mm" width="10mm" height="8mm" /><svg:rect x="101mm" y="51mm" width="8mm" height="8mm" /><svg:rect x="111mm" y="51mm" width="8mm" height="8mm" /><svg:rect x="141mm" y="51mm" width="8mm" height="8mm" /><svg:rect x="180mm" y="50mm" width="10mm" height="8mm" /><svg:rect x="240mm" y="50mm" width="10mm" height="8mm" /><svg:rect x="0mm" y="60mm" width="10mm" height="10mm" /><svg:rect x="10mm" y="60mm" width="10mm" height="10mm" /><svg:rect x="20mm" y="60mm" width="10mm" height="10mm" /><svg:rect x="30mm" y="60mm" width="10mm" height="10mm" /><svg:rect x="40mm" y="60mm" width="10mm" height="10mm" /><svg:rect x="50mm" y="60mm" width="10mm" height="10mm" /><svg:rect x="60mm" y="60mm" width="10mm" height="10mm" /><svg:rect x="81mm" y="61mm" width="8mm" height="8mm" /><svg:rect x="101mm" y="61mm" width="8mm" height="8mm" /><svg:rect x="121mm" y="61mm" width="8mm" height="8mm" /><svg:rect x="141mm" y="61mm" width="8mm" height="8mm" /><svg:rect x="161mm" y="61mm" width="8mm" height="8mm" /><svg:rect x="180mm" y="60mm" width="10mm" height="10mm" /><svg:rect x="190mm" y="60mm" width="10mm" height="10mm" /><svg:rect x="200mm" y="60mm" width="10mm" height="10mm" /><svg:rect x="210mm" y="60mm" width="10mm" height="10mm" /><svg:rect x="220mm" y="60mm" width="10mm" height="10mm" /><svg:rect x="230mm" y="60mm" width="10mm" height="10mm" /><svg:rect x="240mm" y="60mm" width="10mm" height="10mm" /><svg:rect x="81mm" y="71mm" width="8mm" height="8mm" /><svg:rect x="101mm" y="71mm" width="8mm" height="8mm" /><svg:rect x="131mm" y="71mm" width="8mm" height="8mm" /><svg:rect x="141mm" y="71mm" width="8mm" height="8mm" /><svg:rect x="151mm" y="71mm" width="8mm" height="8mm" /><svg:rect x="161mm" y="71mm" width="8mm" height="8mm" /><svg:rect x="1mm" y="81mm" width="8mm" height="8mm" /><svg:rect x="11mm" y="81mm" width="8mm" height="8mm" /><svg:rect x="31mm" y="81mm" width="8mm" height="8mm" /><svg:rect x="41mm" y="81mm" width="8mm" height="8mm" /><svg:rect x="61mm" y="81mm" width="8mm" height="8mm" /><svg:rect x="91mm" y="81mm" width="8mm" height="8mm" /><svg:rect x="101mm" y="81mm" width="8mm" height="8mm" /><svg:rect x="111mm" y="81mm" width="8mm" height="8mm" /><svg:rect x="121mm" y="81mm" width="8mm" height="8mm" /><svg:rect x="141mm" y="81mm" width="8mm" height="8mm" /><svg:rect x="161mm" y="81mm" width="8mm" height="8mm" /><svg:rect x="181mm" y="81mm" width="8mm" height="8mm" /><svg:rect x="241mm" y="81mm" width="8mm" height="8mm" /><svg:rect x="11mm" y="91mm" width="8mm" height="8mm" /><svg:rect x="51mm" y="91mm" width="8mm" height="8mm" /><svg:rect x="71mm" y="91mm" width="8mm" height="8mm" /><svg:rect x="91mm" y="91mm" width="8mm" height="8mm" /><svg:rect x="111mm" y="91mm" width="8mm" height="8mm" /><svg:rect x="141mm" y="91mm" width="8mm" height="8mm" /><svg:rect x="151mm" y="91mm" width="8mm" height="8mm" /><svg:rect x="171mm" y="91mm" width="8mm" height="8mm" /><svg:rect x="191mm" y="91mm" width="8mm" height="8mm" /><svg:rect x="201mm" y="91mm" width="8mm" height="8mm" /><svg:rect x="211mm" y="91mm" width="8mm" height="8mm" /><svg:rect x="221mm" y="91mm" width="8mm" height="8mm" /><svg:rect x="231mm" y="91mm" width="8mm" height="8mm" /><svg:rect x="1mm" y="101mm" width="8mm" height="8mm" /><svg:rect x="21mm" y="101mm" width="8mm" height="8mm" /><svg:rect x="41mm" y="101mm" width="8mm" height="8mm" /><svg:rect x="61mm" y="101mm" width="8mm" height="8mm" /><svg:rect x="71mm" y="101mm" width="8mm" height="8mm" /><svg:rect x="101mm" y="101mm" width="8mm" height="8mm" /><svg:rect x="111mm" y="101mm" width="8mm" height="8mm" /><svg:rect x="151mm" y="101mm" width="8mm" height="8mm" /><svg:rect x="171mm" y="101mm" width="8mm" height="8mm" /><svg:rect x="181mm" y="101mm" width="8mm" height="8mm" /><svg:rect x="191mm" y="101mm" width="8mm" height="8mm" /><svg:rect x="201mm" y="101mm" width="8mm" height="8mm" /><svg:rect x="211mm" y="101mm" width="8mm" height="8mm" /><svg:rect x="241mm" y="101mm" width="8mm" height="8mm" /><svg:rect x="21mm" y="111mm" width="8mm" height="8mm" /><svg:rect x="31mm" y="111mm" width="8mm" height="8mm" /><svg:rect x="41mm" y="111mm" width="8mm" height="8mm" /><svg:rect x="51mm" y="111mm" width="8mm" height="8mm" /><svg:rect x="81mm" y="111mm" width="8mm" height="8mm" /><svg:rect x="91mm" y="111mm" width="8mm" height="8mm" /><svg:rect x="101mm" y="111mm" width="8mm" height="8mm" /><svg:rect x="141mm" y="111mm" width="8mm" height="8mm" /><svg:rect x="171mm" y="111mm" width="8mm" height="8mm" /><svg:rect x="211mm" y="111mm" width="8mm" height="8mm" /><svg:rect x="221mm" y="111mm" width="8mm" height="8mm" /><svg:rect x="231mm" y="111mm" width="8mm" height="8mm" /><svg:rect x="241mm" y="111mm" width="8mm" height="8mm" /><svg:rect x="11mm" y="121mm" width="8mm" height="8mm" /><svg:rect x="21mm" y="121mm" width="8mm" height="8mm" /><svg:rect x="41mm" y="121mm" width="8mm" height="8mm" /><svg:rect x="51mm" y="121mm" width="8mm" height="8mm" /><svg:rect x="61mm" y="121mm" width="8mm" height="8mm" /><svg:rect x="81mm" y="121mm" width="8mm" height="8mm" /><svg:rect x="91mm" y="121mm" width="8mm" height="8mm" /><svg:rect x="121mm" y="121mm" width="8mm" height="8mm" /><svg:rect x="151mm" y="121mm" width="8mm" height="8mm" /><svg:rect x="181mm" y="121mm" width="8mm" height="8mm" /><svg:rect x="241mm" y="121mm" width="8mm" height="8mm" /><svg:rect x="1mm" y="131mm" width="8mm" height="8mm" /><svg:rect x="11mm" y="131mm" width="8mm" height="8mm" /><svg:rect x="51mm" y="131mm" width="8mm" height="8mm" /><svg:rect x="71mm" y="131mm" width="8mm" height="8mm" /><svg:rect x="81mm" y="131mm" width="8mm" height="8mm" /><svg:rect x="91mm" y="131mm" width="8mm" height="8mm" /><svg:rect x="111mm" y="131mm" width="8mm" height="8mm" /><svg:rect x="131mm" y="131mm" width="8mm" height="8mm" /><svg:rect x="141mm" y="131mm" width="8mm" height="8mm" /><svg:rect x="151mm" y="131mm" width="8mm" height="8mm" /><svg:rect x="161mm" y="131mm" width="8mm" height="8mm" /><svg:rect x="201mm" y="131mm" width="8mm" height="8mm" /><svg:rect x="231mm" y="131mm" width="8mm" height="8mm" /><svg:rect x="1mm" y="141mm" width="8mm" height="8mm" /><svg:rect x="11mm" y="141mm" width="8mm" height="8mm" /><svg:rect x="21mm" y="141mm" width="8mm" height="8mm" /><svg:rect x="41mm" y="141mm" width="8mm" height="8mm" /><svg:rect x="61mm" y="141mm" width="8mm" height="8mm" /><svg:rect x="71mm" y="141mm" width="8mm" height="8mm" /><svg:rect x="91mm" y="141mm" width="8mm" height="8mm" /><svg:rect x="101mm" y="141mm" width="8mm" height="8mm" /><svg:rect x="131mm" y="141mm" width="8mm" height="8mm" /><svg:rect x="141mm" y="141mm" width="8mm" height="8mm" /><svg:rect x="151mm" y="141mm" width="8mm" height="8mm" /><svg:rect x="181mm" y="141mm" width="8mm" height="8mm" /><svg:rect x="201mm" y="141mm" width="8mm" height="8mm" /><svg:rect x="211mm" y="141mm" width="8mm" height="8mm" /><svg:rect x="221mm" y="141mm" width="8mm" height="8mm" /><svg:rect x="231mm" y="141mm" width="8mm" height="8mm" /><svg:rect x="241mm" y="141mm" width="8mm" height="8mm" /><svg:rect x="1mm" y="151mm" width="8mm" height="8mm" /><svg:rect x="21mm" y="151mm" width="8mm" height="8mm" /><svg:rect x="31mm" y="151mm" width="8mm" height="8mm" /><svg:rect x="41mm" y="151mm" width="8mm" height="8mm" /><svg:rect x="51mm" y="151mm" width="8mm" height="8mm" /><svg:rect x="81mm" y="151mm" width="8mm" height="8mm" /><svg:rect x="101mm" y="151mm" width="8mm" height="8mm" /><svg:rect x="111mm" y="151mm" width="8mm" height="8mm" /><svg:rect x="121mm" y="151mm" width="8mm" height="8mm" /><svg:rect x="141mm" y="151mm" width="8mm" height="8mm" /><svg:rect x="161mm" y="151mm" width="8mm" height="8mm" /><svg:rect x="171mm" y="151mm" width="8mm" height="8mm" /><svg:rect x="191mm" y="151mm" width="8mm" height="8mm" /><svg:rect x="211mm" y="151mm" width="8mm" height="8mm" /><svg:rect x="221mm" y="151mm" width="8mm" height="8mm" /><svg:rect x="241mm" y="151mm" width="8mm" height="8mm" /><svg:rect x="1mm" y="161mm" width="8mm" height="8mm" /><svg:rect x="21mm" y="161mm" width="8mm" height="8mm" /><svg:rect x="31mm" y="161mm" width="8mm" height="8mm" /><svg:rect x="41mm" y="161mm" width="8mm" height="8mm" /><svg:rect x="61mm" y="161mm" width="8mm" height="8mm" /><svg:rect x="71mm" y="161mm" width="8mm" height="8mm" /><svg:rect x="91mm" y="161mm" width="8mm" height="8mm" /><svg:rect x="111mm" y="161mm" width="8mm" height="8mm" /><svg:rect x="121mm" y="161mm" width="8mm" height="8mm" /><svg:rect x="131mm" y="161mm" width="8mm" height="8mm" /><svg:rect x="151mm" y="161mm" width="8mm" height="8mm" /><svg:rect x="161mm" y="161mm" width="8mm" height="8mm" /><svg:rect x="171mm" y="161mm" width="8mm" height="8mm" /><svg:rect x="181mm" y="161mm" width="8mm" height="8mm" /><svg:rect x="191mm" y="161mm" width="8mm" height="8mm" /><svg:rect x="201mm" y="161mm" width="8mm" height="8mm" /><svg:rect x="221mm" y="161mm" width="8mm" height="8mm" /><svg:rect x="231mm" y="161mm" width="8mm" height="8mm" /><svg:rect x="81mm" y="171mm" width="8mm" height="8mm" /><svg:rect x="131mm" y="171mm" width="8mm" height="8mm" /><svg:rect x="161mm" y="171mm" width="8mm" height="8mm" /><svg:rect x="201mm" y="171mm" width="8mm" height="8mm" /><svg:rect x="221mm" y="171mm" width="8mm" height="8mm" /><svg:rect x="231mm" y="171mm" width="8mm" height="8mm" /><svg:rect x="0mm" y="180mm" width="10mm" height="10mm" /><svg:rect x="10mm" y="180mm" width="10mm" height="10mm" /><svg:rect x="20mm" y="180mm" width="10mm" height="10mm" /><svg:rect x="30mm" y="180mm" width="10mm" height="10mm" /><svg:rect x="40mm" y="180mm" width="10mm" height="10mm" /><svg:rect x="50mm" y="180mm" width="10mm" height="10mm" /><svg:rect x="60mm" y="180mm" width="10mm" height="10mm" /><svg:rect x="101mm" y="181mm" width="8mm" height="8mm" /><svg:rect x="111mm" y="181mm" width="8mm" height="8mm" /><svg:rect x="121mm" y="181mm" width="8mm" height="8mm" /><svg:rect x="131mm" y="181mm" width="8mm" height="8mm" /><svg:rect x="141mm" y="181mm" width="8mm" height="8mm" /><svg:rect x="161mm" y="181mm" width="8mm" height="8mm" /><svg:rect x="181mm" y="181mm" width="8mm" height="8mm" /><svg:rect x="201mm" y="181mm" width="8mm" height="8mm" /><svg:rect x="241mm" y="181mm" width="8mm" height="8mm" /><svg:rect x="0mm" y="190mm" width="10mm" height="8mm" /><svg:rect x="60mm" y="190mm" width="10mm" height="8mm" /><svg:rect x="91mm" y="191mm" width="8mm" height="8mm" /><svg:rect x="101mm" y="191mm" width="8mm" height="8mm" /><svg:rect x="111mm" y="191mm" width="8mm" height="8mm" /><svg:rect x="131mm" y="191mm" width="8mm" height="8mm" /><svg:rect x="151mm" y="191mm" width="8mm" height="8mm" /><svg:rect x="161mm" y="191mm" width="8mm" height="8mm" /><svg:rect x="201mm" y="191mm" width="8mm" height="8mm" /><svg:rect x="231mm" y="191mm" width="8mm" height="8mm" /><svg:rect x="241mm" y="191mm" width="8mm" height="8mm" /><svg:rect x="0mm" y="200mm" width="10mm" height="10mm" /><svg:rect x="20mm" y="200mm" width="10mm" height="10mm" /><svg:rect x="30mm" y="200mm" width="10mm" height="10mm" /><svg:rect x="40mm" y="200mm" width="10mm" height="10mm" /><svg:rect x="60mm" y="200mm" width="10mm" height="10mm" /><svg:rect x="81mm" y="201mm" width="8mm" height="8mm" /><svg:rect x="91mm" y="201mm" width="8mm" height="8mm" /><svg:rect x="111mm" y="201mm" width="8mm" height="8mm" /><svg:rect x="121mm" y="201mm" width="8mm" height="8mm" /><svg:rect x="141mm" y="201mm" width="8mm" height="8mm" /><svg:rect x="151mm" y="201mm" width="8mm" height="8mm" /><svg:rect x="161mm" y="201mm" width="8mm" height="8mm" /><svg:rect x="171mm" y="201mm" width="8mm" height="8mm" /><svg:rect x="181mm" y="201mm" width="8mm" height="8mm" /><svg:rect x="191mm" y="201mm" width="8mm" height="8mm" /><svg:rect x="201mm" y="201mm" width="8mm" height="8mm" /><svg:rect x="231mm" y="201mm" width="8mm" height="8mm" /><svg:rect x="0mm" y="210mm" width="10mm" height="10mm" /><svg:rect x="20mm" y="210mm" width="10mm" height="10mm" /><svg:rect x="30mm" y="210mm" width="10mm" height="10mm" /><svg:rect x="40mm" y="210mm" width="10mm" height="10mm" /><svg:rect x="60mm" y="210mm" width="10mm" height="10mm" /><svg:rect x="81mm" y="211mm" width="8mm" height="8mm" /><svg:rect x="101mm" y="211mm" width="8mm" height="8mm" /><svg:rect x="111mm" y="211mm" width="8mm" height="8mm" /><svg:rect x="121mm" y="211mm" width="8mm" height="8mm" /><svg:rect x="151mm" y="211mm" width="8mm" height="8mm" /><svg:rect x="161mm" y="211mm" width="8mm" height="8mm" /><svg:rect x="171mm" y="211mm" width="8mm" height="8mm" /><svg:rect x="181mm" y="211mm" width="8mm" height="8mm" /><svg:rect x="231mm" y="211mm" width="8mm" height="8mm" /><svg:rect x="241mm" y="211mm" width="8mm" height="8mm" /><svg:rect x="0mm" y="220mm" width="10mm" height="10mm" /><svg:rect x="20mm" y="220mm" width="10mm" height="10mm" /><svg:rect x="30mm" y="220mm" width="10mm" height="10mm" /><svg:rect x="40mm" y="220mm" width="10mm" height="10mm" /><svg:rect x="60mm" y="220mm" width="10mm" height="10mm" /><svg:rect x="91mm" y="221mm" width="8mm" height="8mm" /><svg:rect x="101mm" y="221mm" width="8mm" height="8mm" /><svg:rect x="111mm" y="221mm" width="8mm" height="8mm" /><svg:rect x="131mm" y="221mm" width="8mm" height="8mm" /><svg:rect x="201mm" y="221mm" width="8mm" height="8mm" /><svg:rect x="211mm" y="221mm" width="8mm" height="8mm" /><svg:rect x="221mm" y="221mm" width="8mm" height="8mm" /><svg:rect x="231mm" y="221mm" width="8mm" height="8mm" /><svg:rect x="241mm" y="221mm" width="8mm" height="8mm" /><svg:rect x="0mm" y="230mm" width="10mm" height="8mm" /><svg:rect x="60mm" y="230mm" width="10mm" height="8mm" /><svg:rect x="81mm" y="231mm" width="8mm" height="8mm" /><svg:rect x="101mm" y="231mm" width="8mm" height="8mm" /><svg:rect x="111mm" y="231mm" width="8mm" height="8mm" /><svg:rect x="171mm" y="231mm" width="8mm" height="8mm" /><svg:rect x="181mm" y="231mm" width="8mm" height="8mm" /><svg:rect x="191mm" y="231mm" width="8mm" height="8mm" /><svg:rect x="201mm" y="231mm" width="8mm" height="8mm" /><svg:rect x="221mm" y="231mm" width="8mm" height="8mm" /><svg:rect x="231mm" y="231mm" width="8mm" height="8mm" /><svg:rect x="241mm" y="231mm" width="8mm" height="8mm" /><svg:rect x="0mm" y="240mm" width="10mm" height="10mm" /><svg:rect x="10mm" y="240mm" width="10mm" height="10mm" /><svg:rect x="20mm" y="240mm" width="10mm" height="10mm" /><svg:rect x="30mm" y="240mm" width="10mm" height="10mm" /><svg:rect x="40mm" y="240mm" width="10mm" height="10mm" /><svg:rect x="50mm" y="240mm" width="10mm" height="10mm" /><svg:rect x="60mm" y="240mm" width="10mm" height="10mm" /><svg:rect x="81mm" y="241mm" width="8mm" height="8mm" /><svg:rect x="91mm" y="241mm" width="8mm" height="8mm" /><svg:rect x="101mm" y="241mm" width="8mm" height="8mm" /><svg:rect x="121mm" y="241mm" width="8mm" height="8mm" /><svg:rect x="161mm" y="241mm" width="8mm" height="8mm" /><svg:rect x="171mm" y="241mm" width="8mm" height="8mm" /><svg:rect x="211mm" y="241mm" width="8mm" height="8mm" /><svg:rect x="241mm" y="241mm" width="8mm" height="8mm" /></svg>